# xmcd CD database file
#
# Track frame offsets:
#	150
#	19820
#	35880
#
# Disc length: 678 seconds
#
# Revision: 0
# Processed by: cddbd v1.5PL3 Copyright (c) Steve Scherf et al.
# Submitted via: CDex 1.51
#
DISCID=2102a403
DTITLE=WORST LIFE - FULLTRAP
DYEAR=1900
DGENRE=Hardcore
TTITLE0=WORST LIFE
TTITLE1=ID-49
TTITLE2=TRUE END
EXTD=
EXTT0=
EXTT1=
EXTT2=
PLAYORDER=
